<svg version="1.1" xmlns="http://www.w3.org/2000/svg" xmlns:xlink="http://www.w3.org/1999/xlink" width="161.06241" height="232.2059" viewBox="0,0,161.06241,232.2059"><g transform="translate(-239.66121,-63.89705)"><g data-paper-data="{&quot;isPaintingLayer&quot;:true}" fill-rule="nonzero" stroke-linecap="butt" stroke-linejoin="miter" stroke-miterlimit="10" stroke-dasharray="" stroke-dashoffset="0" style="mix-blend-mode: normal"><path d="M287.91499,281.85295c-17.79734,0 -32.72494,-13.94431 -33.98257,-31.73504c-0.01226,-0.23192 -0.02168,-0.47137 -0.03959,-0.70706c-0.29037,-5.71215 -0.67219,-16.8329 0.0198,-29.36683c0.46572,-8.17557 0.67219,-21.9285 0.67878,-22.42156c0.00095,-0.03677 0.00095,-0.06411 0.00095,-0.10088c0.12162,-8.43105 3.36091,-16.15316 8.60452,-22.06518c-2.59635,-9.05515 -3.43917,-19.8516 -1.82046,-32.56654l0.24606,-1.993c0.92014,-7.53073 2.2909,-18.69106 7.96156,-29.43c8.5734,-16.2154 24.28633,-25.52226 43.10562,-25.52226c1.08228,0 2.20604,0.03015 3.35054,0.09709c1.68565,0.09332 3.52968,0.29414 5.49721,0.64201c6.01571,-5.30678 13.91695,-8.53665 22.54504,-8.53665c0.11032,0 0.23474,0 0.34694,0c18.66466,0.23192 33.78457,15.5828 33.6903,34.23334c0,0.12539 -0.00093,0.25548 -0.00281,0.37994c-0.00565,0.41388 -1.70826,48.08147 -2.22208,51.47066c-0.03772,0.23569 -0.07637,0.4676 -0.11597,0.69952c-0.4497,2.53507 -1.1822,4.95983 -2.14288,7.25357c8.23874,9.68492 12.69044,21.71919 12.83844,35.31373c0.17817,17.09875 -7.64479,33.70349 -21.47502,45.54827c-11.86834,10.18082 -26.93169,15.77606 -42.39571,15.77606c-0.00282,0 0,0 -0.00281,0c-2.5068,0 -5.01074,-0.13765 -7.50245,-0.4346c-0.50815,0.66654 -1.04835,1.32551 -1.60741,1.95716c-6.02515,6.81518 -14.3544,10.88224 -23.44443,11.44035c-0.60525,0.04243 -1.37549,0.06789 -2.13157,0.06789z" fill="none" stroke="#28a5da" stroke-width="28.5"/><path d="M359.87644,207.77594c0.09522,9.22673 -4.34799,18.37242 -12.1719,25.06598c-8.76385,7.50999 -20.18721,10.72762 -31.33717,8.86378c-8.64506,-1.45938 -15.81001,-4.87027 -21.27329,-8.38674c-0.05373,8.09449 0.32524,13.88018 0.32524,13.9905c0.25264,4.10947 -2.85183,7.67308 -6.99241,7.93044c-4.1236,0.27435 -7.66271,-2.85937 -7.94931,-6.98581c-0.02073,-0.51191 -0.78249,-12.55561 0,-26.75068c0.49023,-8.82325 0.7146,-23.45104 0.7146,-23.59246c0.05375,-4.14812 3.47312,-7.44588 7.59956,-7.37046c4.13115,0.07919 7.42231,3.4618 7.3761,7.57127c-0.00756,0.15838 -0.02733,1.32739 -0.06599,3.07526c0.31581,3.91999 1.28499,10.12329 4.13587,14.06778c3.37318,4.677 10.00924,8.70919 12.68665,10.16574c1.85156,0.66087 3.82852,1.18597 5.90542,1.52065c6.68036,1.12471 13.85568,-0.90786 19.16057,-5.4576c4.45263,-3.81721 6.96792,-8.76104 6.91605,-13.55212c-0.12727,-12.40289 -13.58889,-17.03746 -33.74782,-20.21361c-18.52985,-2.89425 -26.40753,-17.83318 -23.39826,-41.46616l0.26304,-2.10516c1.46976,-11.99751 3.92658,-32.78716 26.56307,-31.5446c8.41031,0.47419 15.97404,6.21276 21.83421,12.61974c0.11595,-6.51727 0.15177,-12.93272 0.15177,-13.01945c0.01791,-4.13681 3.38073,-7.4638 7.53167,-7.45625c4.11795,0.04619 7.43834,3.39581 7.41477,7.51093c-0.0113,0.77493 -1.85911,47.51865 -1.92133,47.98248c-0.73251,4.06234 -4.62892,6.75861 -8.679,6.03362c-3.13561,-0.56564 -5.45667,-3.00269 -6.02233,-5.95728l-0.0047,0.00283c0,0 -0.47419,-4.22166 -0.49872,-4.33479c-0.2649,-3.53533 -0.97952,-6.81518 -3.07715,-11.84573c-2.86127,-6.90568 -8.05867,-10.37973 -10.32883,-13.05527c-2.5181,-2.05615 -5.02112,-3.42031 -7.22433,-3.55889c-7.3667,-0.37992 -9.00144,2.9989 -10.9058,18.44688l-0.27246,2.14477c-2.25601,17.76152 2.28618,23.4746 10.86714,24.8152c14.9964,2.35973 46.12336,7.22152 46.42504,34.84519z" fill="none" stroke="#28a5da" stroke-width="20"/><path d="M359.87644,207.77594c0.09522,9.22673 -4.34799,18.37242 -12.1719,25.06598c-8.76385,7.50999 -20.18721,10.72762 -31.33717,8.86378c-8.64506,-1.45938 -15.81001,-4.87027 -21.27329,-8.38674c-0.05373,8.09449 0.32524,13.88018 0.32524,13.9905c0.25264,4.10947 -2.85183,7.67308 -6.99241,7.93044c-4.1236,0.27435 -7.66271,-2.85937 -7.94931,-6.98581c-0.02073,-0.51191 -0.78249,-12.55561 0,-26.75068c0.49023,-8.82325 0.7146,-23.45104 0.7146,-23.59246c0.05375,-4.14812 3.47312,-7.44588 7.59956,-7.37046c4.13115,0.07919 7.42231,3.4618 7.3761,7.57127c-0.00756,0.15838 -0.02733,1.32739 -0.06599,3.07526c0.31581,3.91999 1.28499,10.12329 4.13587,14.06778c3.37318,4.677 10.00924,8.70919 12.68665,10.16574c1.85156,0.66087 3.82852,1.18597 5.90542,1.52065c6.68036,1.12471 13.85568,-0.90786 19.16057,-5.4576c4.45263,-3.81721 6.96792,-8.76104 6.91605,-13.55212c-0.12727,-12.40289 -13.58889,-17.03746 -33.74782,-20.21361c-18.52985,-2.89425 -26.40753,-17.83318 -23.39826,-41.46616l0.26304,-2.10516c1.46976,-11.99751 3.92658,-32.78716 26.56307,-31.5446c8.41031,0.47419 15.97404,6.21276 21.83421,12.61974c0.11595,-6.51727 0.15177,-12.93272 0.15177,-13.01945c0.01791,-4.13681 3.38073,-7.4638 7.53167,-7.45625c4.11795,0.04619 7.43834,3.39581 7.41477,7.51093c-0.0113,0.77493 -1.85911,47.51865 -1.92133,47.98248c-0.73251,4.06234 -4.62892,6.75861 -8.679,6.03362c-3.13561,-0.56564 -5.45667,-3.00269 -6.02233,-5.95728l-0.0047,0.00283c0,0 -0.47419,-4.22166 -0.49872,-4.33479c-0.2649,-3.53533 -0.97952,-6.81518 -3.07715,-11.84573c-2.86127,-6.90568 -8.05867,-10.37973 -10.32883,-13.05527c-2.5181,-2.05615 -5.02112,-3.42031 -7.22433,-3.55889c-7.3667,-0.37992 -9.00144,2.9989 -10.9058,18.44688l-0.27246,2.14477c-2.25601,17.76152 2.28618,23.4746 10.86714,24.8152c14.9964,2.35973 46.12336,7.22152 46.42504,34.84519z" fill="#f9a737" stroke="#ffffff" stroke-width="38.5"/><path d="M359.87644,207.77594c0.09522,9.22673 -4.34799,18.37242 -12.1719,25.06598c-8.76385,7.50999 -20.18721,10.72762 -31.33717,8.86378c-8.64506,-1.45938 -15.81001,-4.87027 -21.27329,-8.38674c-0.05373,8.09449 0.32524,13.88018 0.32524,13.9905c0.25264,4.10947 -2.85183,7.67308 -6.99241,7.93044c-4.1236,0.27435 -7.66271,-2.85937 -7.94931,-6.98581c-0.02073,-0.51191 -0.78249,-12.55561 0,-26.75068c0.49023,-8.82325 0.7146,-23.45104 0.7146,-23.59246c0.05375,-4.14812 3.47312,-7.44588 7.59956,-7.37046c4.13115,0.07919 7.42231,3.4618 7.3761,7.57127c-0.00756,0.15838 -0.02733,1.32739 -0.06599,3.07526c0.31581,3.91999 1.28499,10.12329 4.13587,14.06778c3.37318,4.677 10.00924,8.70919 12.68665,10.16574c1.85156,0.66087 3.82852,1.18597 5.90542,1.52065c6.68036,1.12471 13.85568,-0.90786 19.16057,-5.4576c4.45263,-3.81721 6.96792,-8.76104 6.91605,-13.55212c-0.12727,-12.40289 -13.58889,-17.03746 -33.74782,-20.21361c-18.52985,-2.89425 -26.40753,-17.83318 -23.39826,-41.46616l0.26304,-2.10516c1.46976,-11.99751 3.92658,-32.78716 26.56307,-31.5446c8.41031,0.47419 15.97404,6.21276 21.83421,12.61974c0.11595,-6.51727 0.15177,-12.93272 0.15177,-13.01945c0.01791,-4.13681 3.38073,-7.4638 7.53167,-7.45625c4.11795,0.04619 7.43834,3.39581 7.41477,7.51093c-0.0113,0.77493 -1.85911,47.51865 -1.92133,47.98248c-0.73251,4.06234 -4.62892,6.75861 -8.679,6.03362c-3.13561,-0.56564 -5.45667,-3.00269 -6.02233,-5.95728l-0.0047,0.00283c0,0 -0.47419,-4.22166 -0.49872,-4.33479c-0.2649,-3.53533 -0.97952,-6.81518 -3.07715,-11.84573c-2.86127,-6.90568 -8.05867,-10.37973 -10.32883,-13.05527c-2.5181,-2.05615 -5.02112,-3.42031 -7.22433,-3.55889c-7.3667,-0.37992 -9.00144,2.9989 -10.9058,18.44688l-0.27246,2.14477c-2.25601,17.76152 2.28618,23.4746 10.86714,24.8152c14.9964,2.35973 46.12336,7.22152 46.42504,34.84519z" fill="#f9a737" stroke="#000000" stroke-width="0"/></g></g></svg>