<svg version="1.1" xmlns="http://www.w3.org/2000/svg" xmlns:xlink="http://www.w3.org/1999/xlink" width="573.06645" height="305.10219" viewBox="0,0,573.06645,305.10219"><defs><linearGradient x1="33.47234" y1="180.00112" x2="606.53257" y2="180.00112" gradientUnits="userSpaceOnUse" id="color-1"><stop offset="0.012" stop-color="#66b3e3"/><stop offset="1" stop-color="#1c75bc"/></linearGradient></defs><g transform="translate(-33.46679,-27.44891)"><g data-paper-data="{&quot;isPaintingLayer&quot;:true}" fill-rule="nonzero" stroke="none" stroke-width="1" stroke-linecap="butt" stroke-linejoin="miter" stroke-miterlimit="10" stroke-dasharray="" stroke-dashoffset="0" style="mix-blend-mode: normal"><path d="M606.53325,284.53009c0,26.51898 -24.27001,48.02101 -54.1888,48.02101h-464.69516c-29.9251,0 -54.18249,-21.50761 -54.18249,-48.021v-209.06576c0,-26.51898 24.25747,-48.01543 54.18249,-48.01543h464.68885c29.93764,0 54.18881,21.49645 54.18881,48.01543v209.06576z" fill="url(#color-1)"/><path d="M579.8158,75.47271v209.06018c0,15.97166 -14.36559,28.96328 -32.04636,28.96328h-455.54501c-17.6622,0 -32.04022,-12.99162 -32.04022,-28.96328v-209.06576c0,-15.97166 14.37794,-28.96328 32.04023,-28.96328h455.54501c17.68077,0 32.04636,12.9972 32.04636,28.96886z" fill="#27aae1"/><text transform="translate(84.08146,83.64052) scale(0.86837,0.86837)" font-size="40" xml:space="preserve" fill="#000000" fill-rule="nonzero" stroke="none" stroke-width="1" stroke-linecap="butt" stroke-linejoin="miter" stroke-miterlimit="10" stroke-dasharray="" stroke-dashoffset="0" font-family="Marker" font-weight="normal" text-anchor="start" style="mix-blend-mode: normal"><tspan x="0" dy="0">Welcome to my social media!</tspan></text><text transform="translate(100.6402,125.76876) scale(0.5,0.5)" font-size="40" xml:space="preserve" fill="#000000" fill-rule="nonzero" stroke="none" stroke-width="1" stroke-linecap="butt" stroke-linejoin="miter" stroke-miterlimit="10" stroke-dasharray="" stroke-dashoffset="0" font-family="Sans Serif" font-weight="normal" text-anchor="start" style="mix-blend-mode: normal"><tspan x="0" dy="0">I sometimes post on Twitter and stuff, i kinda</tspan><tspan x="0" dy="46.150000000000006px">rarely post on Facebook, but I often post on</tspan><tspan x="0" dy="46.150000000000006px">YouTube and YouTube Shorts and im almost</tspan><tspan x="0" dy="46.150000000000006px">always around to chat on Discord. I also post </tspan><tspan x="0" dy="46.150000000000006px">on TikTok (although its usually pretty random)</tspan><tspan x="0" dy="46.150000000000006px">very often, so feel free to follow me there!</tspan><tspan x="0" dy="46.150000000000006px">Hope you enjoy my social medias!   :)</tspan><tspan x="0" dy="46.150000000000006px">             (CLICK TO CLOSE THIS MESSAGE)</tspan></text><text transform="translate(85.91817,305.10024) scale(0.15294,0.15294)" font-size="40" xml:space="preserve" fill="#000000" fill-rule="nonzero" stroke="none" stroke-width="1" stroke-linecap="butt" stroke-linejoin="miter" stroke-miterlimit="10" stroke-dasharray="" stroke-dashoffset="0" font-family="Sans Serif" font-weight="normal" text-anchor="start" style="mix-blend-mode: normal"><tspan x="0" dy="0">shoutout to the members of the server which i am affiliated with and have admin in, Chill and Hangout!</tspan></text></g></g></svg>