<svg version="1.1" xmlns="http://www.w3.org/2000/svg" xmlns:xlink="http://www.w3.org/1999/xlink" width="659.72283" height="373.84294" viewBox="0,0,659.72283,373.84294"><defs><linearGradient x1="-9.86142" y1="180.00001" x2="649.86141" y2="180.00001" gradientUnits="userSpaceOnUse" id="color-1"><stop offset="0" stop-color="#0d0026"/><stop offset="1" stop-color="#000000"/></linearGradient></defs><g transform="translate(9.86142,6.92146)"><g data-paper-data="{&quot;isPaintingLayer&quot;:true}" fill-rule="nonzero" stroke="none" stroke-linecap="butt" stroke-linejoin="miter" stroke-miterlimit="10" stroke-dasharray="" stroke-dashoffset="0" style="mix-blend-mode: normal"><path d="M-9.86142,366.92148v-373.84294h659.72283v373.84294z" fill="url(#color-1)" stroke-width="0"/><path d="M47.84964,37.42678c0,-2.76143 2.23857,-5 5,-5c2.76143,0 5,2.23857 5,5c0,2.76143 -2.23857,5 -5,5c-2.76143,0 -5,-2.23857 -5,-5z" fill="#ffffff" stroke-width="0.5"/><path d="M507.7164,202.23824c0,-2.76143 2.23858,-5 5,-5c2.76143,0 5,2.23857 5,5c0,2.76143 -2.23857,5 -5,5c-2.76142,0 -5,-2.23857 -5,-5z" fill="#ffffff" stroke-width="0.5"/><path d="M73.21359,284.90704c0,-2.76142 2.23857,-5 5,-5c2.76143,0 5,2.23858 5,5c0,2.76142 -2.23857,5 -5,5c-2.76143,0 -5,-2.23858 -5,-5z" fill="#ffffff" stroke-width="0.5"/><path d="M577.75678,88.1542c0,-2.76143 2.23857,-5 5,-5c2.76143,0 5,2.23857 5,5c0,2.76143 -2.23857,5 -5,5c-2.76143,0 -5,-2.23857 -5,-5z" fill="#ffffff" stroke-width="0.5"/><path d="M308.96178,187.66196c0,-2.76143 2.23858,-5 5,-5c2.76142,0 5,2.23857 5,5c0,2.76143 -2.23858,5 -5,5c-2.76142,0 -5,-2.23857 -5,-5z" fill="#ffffff" stroke-width="0.5"/><path d="M412.57519,304.53495c0,-2.76142 2.23858,-5 5,-5c2.76142,0 5,2.23858 5,5c0,2.76142 -2.23858,5 -5,5c-2.76142,0 -5,-2.23858 -5,-5z" fill="#ffffff" stroke-width="0.5"/><path d="M159.64622,176.24307c0,-1.38071 1.11929,-2.5 2.5,-2.5c1.38071,0 2.5,1.11929 2.5,2.5c0,1.38071 -1.11929,2.5 -2.5,2.5c-1.38071,0 -2.5,-1.11929 -2.5,-2.5z" fill="#ffffff" stroke-width="0.5"/><path d="M545.68386,299.53587c0,-1.38071 1.11929,-2.5 2.5,-2.5c1.38071,0 2.5,1.11929 2.5,2.5c0,1.38071 -1.11929,2.5 -2.5,2.5c-1.38071,0 -2.5,-1.11929 -2.5,-2.5z" fill="#ffffff" stroke-width="0.5"/><path d="M416.7065,240.1785c0,-1.38071 1.11929,-2.5 2.5,-2.5c1.38071,0 2.5,1.11929 2.5,2.5c0,1.38071 -1.11929,2.5 -2.5,2.5c-1.38071,0 -2.5,-1.11929 -2.5,-2.5z" fill="#ffffff" stroke-width="0.5"/><path d="M209.32174,294.22105c0,-1.38071 1.11929,-2.5 2.5,-2.5c1.38071,0 2.5,1.11929 2.5,2.5c0,1.38071 -1.11929,2.5 -2.5,2.5c-1.38071,0 -2.5,-1.11929 -2.5,-2.5z" fill="#ffffff" stroke-width="0.5"/><path d="M39.64075,110.58815l3.75988,-1.46877c0.05262,0.96471 0.10524,1.92942 0.15787,2.89413c0,0 0.13617,2.49629 -2.36012,2.63246c-0.15243,0.00831 -0.29606,0.00681 -0.43139,-0.00334c-0.45329,0.18029 -1.02769,0.22222 -1.74282,-0.02871c-2.359,-0.82774 -1.53126,-3.18673 -1.53126,-3.18673l1.00476,-0.3925c-0.02987,-0.54766 -0.05975,-1.09533 -0.08962,-1.64298z" fill="#ffffff" stroke-width="0.5"/><path d="M565.15412,46.42508c0,-1.38071 1.11929,-2.5 2.5,-2.5c1.38071,0 2.5,1.11929 2.5,2.5c0,1.38071 -1.11929,2.5 -2.5,2.5c-1.38071,0 -2.5,-1.11929 -2.5,-2.5z" fill="#ffffff" stroke-width="0.5"/><path d="M310.88292,99.52048c0,-1.38071 1.11929,-2.5 2.5,-2.5c1.38071,0 2.5,1.11929 2.5,2.5c0,1.38071 -1.11929,2.5 -2.5,2.5c-1.38071,0 -2.5,-1.11929 -2.5,-2.5z" fill="#ffffff" stroke-width="0.5"/><path d="M37.61499,339.00221c0,-1.38071 1.11929,-2.5 2.5,-2.5c1.38071,0 2.5,1.11929 2.5,2.5c0,1.38071 -1.11929,2.5 -2.5,2.5c-1.38071,0 -2.5,-1.11929 -2.5,-2.5z" fill="#ffffff" stroke-width="0.5"/><path d="M54.61202,222.6555c0,-1.38071 1.11929,-2.5 2.5,-2.5c1.38071,0 2.5,1.11929 2.5,2.5c0,1.38071 -1.11929,2.5 -2.5,2.5c-1.38071,0 -2.5,-1.11929 -2.5,-2.5z" fill="#ffffff" stroke-width="0.5"/><path d="M168.74991,25.84998c0,-1.38071 1.11929,-2.5 2.5,-2.5c1.38071,0 2.5,1.11929 2.5,2.5c0,1.38071 -1.11929,2.5 -2.5,2.5c-1.38071,0 -2.5,-1.11929 -2.5,-2.5z" fill="#ffffff" stroke-width="0.5"/><path d="M104.95867,99.04687c0,-0.69035 0.55965,-1.25 1.25,-1.25c0.69035,0 1.25,0.55965 1.25,1.25c0,0.69035 -0.55965,1.25 -1.25,1.25c-0.69035,0 -1.25,-0.55965 -1.25,-1.25z" fill="#ffffff" stroke-width="0.5"/><path d="M587.94439,260.43008c-0.15003,1.24097 -1.39099,1.09094 -1.39099,1.09094l-1.18678,-0.14354c-0.82824,-0.09201 -1.65648,-0.18402 -2.48472,-0.27603c0,0 -1.24235,-0.13802 -1.10434,-1.38038c0.13801,-1.24235 1.38037,-1.10434 1.38037,-1.10434c0.82824,0.09201 1.65648,0.18402 2.48472,0.27603l1.21081,0.14633c0,0 1.24096,0.15002 1.09093,1.39099z" fill="#ffffff" stroke-width="0.5"/><path d="M467.15838,131.09357c0,-0.69036 0.55964,-1.25 1.25,-1.25c0.69036,0 1.25,0.55964 1.25,1.25c0,0.69036 -0.55964,1.25 -1.25,1.25c-0.69036,0 -1.25,-0.55964 -1.25,-1.25z" fill="#ffffff" stroke-width="0.5"/><path d="M308.97552,270.75182c0,-0.69036 0.55964,-1.25 1.25,-1.25c0.69036,0 1.25,0.55964 1.25,1.25c0,0.69036 -0.55964,1.25 -1.25,1.25c-0.69036,0 -1.25,-0.55964 -1.25,-1.25z" fill="#ffffff" stroke-width="0.5"/><path d="M226.29299,151.05916c0.45107,0.31905 0.90215,0.63811 1.35322,0.95717c0,0 1.02051,0.72184 0.29868,1.74235c-0.72183,1.02051 -1.74235,0.29868 -1.74235,0.29868c-0.68034,-0.48122 -1.36069,-0.96245 -2.04103,-1.44367l0.82724,-2.29164c0,0 0.98604,-0.11638 1.30425,0.73711z" fill="#ffffff" stroke-width="0.5"/><path d="M511.99265,13.32601c0,-0.69036 0.55965,-1.25 1.25,-1.25c0.69035,0 1.25,0.55964 1.25,1.25c0,0.69036 -0.55965,1.25 -1.25,1.25c-0.69035,0 -1.25,-0.55964 -1.25,-1.25z" fill="#ffffff" stroke-width="0.5"/><path d="M142.69871,325.68651c-0.52382,-1.13495 0.61114,-1.65877 0.61114,-1.65877l2.22804,-0.70052c0.75424,0.21049 1.50848,0.42098 2.26272,0.63148c0,0 1.20399,0.33601 0.86798,1.54001c-0.33601,1.204 -1.54,0.86798 -1.54,0.86798c-0.75424,-0.21049 -1.50848,-0.42098 -2.26272,-0.63148l-0.50839,0.56244c0,0 -1.13495,0.52382 -1.65877,-0.61113z" fill="#ffffff" stroke-width="0.5"/><path d="M370.01745,336.2133c0,-0.69036 0.55964,-1.25 1.25,-1.25c0.69036,0 1.25,0.55964 1.25,1.25c0,0.69036 -0.55964,1.25 -1.25,1.25c-0.69036,0 -1.25,-0.55964 -1.25,-1.25z" fill="#ffffff" stroke-width="0.5"/><path d="M501.52079,320.111c0,-0.69036 0.55964,-1.25 1.25,-1.25c0.69036,0 1.25,0.55964 1.25,1.25c0,0.69036 -0.55964,1.25 -1.25,1.25c-0.69036,0 -1.25,-0.55964 -1.25,-1.25z" fill="#ffffff" stroke-width="0.5"/><path d="M595.76739,184.55728c0,-0.69036 0.55965,-1.25 1.25,-1.25c0.69035,0 1.25,0.55964 1.25,1.25c0,0.69036 -0.55965,1.25 -1.25,1.25c-0.69035,0 -1.25,-0.55964 -1.25,-1.25z" fill="#ffffff" stroke-width="0.5"/><path d="M565.77271,148.72185c0,-0.69036 0.55965,-1.25 1.25,-1.25c0.69035,0 1.25,0.55964 1.25,1.25c0,0.69036 -0.55965,1.25 -1.25,1.25c-0.69035,0 -1.25,-0.55964 -1.25,-1.25z" fill="#ffffff" stroke-width="0.5"/><path d="M392.64516,186.18853c0,-0.69036 0.55964,-1.25 1.25,-1.25c0.69036,0 1.25,0.55964 1.25,1.25c0,0.69036 -0.55964,1.25 -1.25,1.25c-0.69036,0 -1.25,-0.55964 -1.25,-1.25z" fill="#ffffff" stroke-width="0.5"/><text transform="translate(136.19734,39.84076) scale(1.23673,1.23673)" font-size="40" xml:space="preserve" fill="#ffffff" fill-rule="nonzero" stroke="none" stroke-width="1" stroke-linecap="butt" stroke-linejoin="miter" stroke-miterlimit="10" stroke-dasharray="" stroke-dashoffset="0" font-family="Marker" font-weight="normal" text-anchor="start" style="mix-blend-mode: normal"><tspan x="0" dy="0">My Social Media</tspan></text><text transform="translate(118.03018,61.00002) scale(0.5,0.5)" font-size="40" xml:space="preserve" fill="#ffffff" fill-rule="nonzero" stroke="none" stroke-width="1" stroke-linecap="butt" stroke-linejoin="miter" stroke-miterlimit="10" stroke-dasharray="" stroke-dashoffset="0" font-family="Marker" font-weight="normal" text-anchor="start" style="mix-blend-mode: normal"><tspan x="0" dy="0">Click one of the buttons to get redirected</tspan></text></g></g></svg>