<svg version="1.1" xmlns="http://www.w3.org/2000/svg" xmlns:xlink="http://www.w3.org/1999/xlink" width="652.15165" height="384.88438" viewBox="0,0,652.15165,384.88438"><defs><linearGradient x1="317.80592" y1="180.00001" x2="641.24774" y2="180.00001" gradientUnits="userSpaceOnUse" id="color-1"><stop offset="0" stop-color="#9bff8f"/><stop offset="1" stop-color="#00a7ff"/></linearGradient><linearGradient x1="322.19404" y1="180.00001" x2="-1.24776" y2="180.00001" gradientUnits="userSpaceOnUse" id="color-2"><stop offset="0" stop-color="#9bff8f"/><stop offset="1" stop-color="#ff8b8b"/></linearGradient></defs><g transform="translate(6.07584,12.44218)"><g data-paper-data="{&quot;isPaintingLayer&quot;:true}" fill-rule="nonzero" stroke-linejoin="miter" stroke-miterlimit="10" stroke-dasharray="" stroke-dashoffset="0" style="mix-blend-mode: normal"><path d="M317.80592,366.00001v-372h323.44181v372z" fill="url(#color-1)" stroke="none" stroke-width="0" stroke-linecap="butt"/><path d="M-1.24776,366.00001v-372h323.4418v372z" data-paper-data="{&quot;index&quot;:null}" fill="url(#color-2)" stroke="none" stroke-width="0" stroke-linecap="butt"/><path d="M-5.82584,372.1922v-384.38438h651.65165v384.38438z" fill-opacity="0.37647" fill="#000000" stroke="#000000" stroke-width="0.5" stroke-linecap="butt"/><path d="M57.52622,3.54013c9.35073,-0.25435 4.12966,20.70289 9.41855,21.29413c6.49799,0.72641 0.31752,-22.71275 12.69459,-20.47513c11.04367,3.46593 -3.15677,22.66202 -0.94768,29.96904c1.52537,5.04548 5.01635,4.43646 5.04271,9.34322c0.02636,4.90675 -2.37695,9.48912 -4.93205,11.25804c-2.75357,1.90632 -11.03855,1.84604 -11.03855,1.84604c0,0 -8.41675,0.10447 -11.24558,-1.51201c-2.90232,-1.65847 -5.95353,-8.31606 -5.95353,-8.31606c0,0 -0.29546,-4.55897 0.51229,-6.80914c1.04265,-2.90452 5.22074,-9.16146 5.22074,-9.16146c0,0 -7.994,-26.99036 1.22851,-27.43668z" fill="#aeaeae" stroke="#000000" stroke-width="0.5" stroke-linecap="round"/><path d="M72.55112,38.96813c5.42395,1.53088 5.63905,7.71171 2.37278,11.35189c-1.39633,1.55618 -2.69114,2.65332 -4.59286,3.516c-2.19218,0.33483 -3.84972,0.45138 -5.95494,-0.39201c-3.07761,-1.23295 -6.55189,-3.40095 -6.57921,-7.09696c-0.03688,-4.99033 6.92566,-10.65333 11.29755,-7.54602c0.14022,0.05352 0.26834,0.13155 0.3791,0.22886c0.82485,-0.31802 1.76307,-0.43278 3.07758,-0.06177zM68.38438,45.38735c-0.03129,-0.02498 -0.06203,-0.05076 -0.09222,-0.07727c0.00974,0.04919 0.02026,0.09746 0.03161,0.14428c0.02036,-0.02215 0.04056,-0.04449 0.06061,-0.06701zM66.29807,40.66292c-0.04011,0.00432 -0.08417,0.02161 -0.13122,0.04919c0.0442,-0.01606 0.08794,-0.03247 0.13122,-0.04919z" fill="#ffffff" stroke="#ffffff" stroke-width="0.5" stroke-linecap="butt"/><path d="M59.0089,25.0037l-2.27344,-14.33259" fill="none" stroke="#ffbfbf" stroke-width="5" stroke-linecap="round"/><path d="M79.8088,10.2616l-4.09503,15.1516" fill="none" stroke="#ffbfbf" stroke-width="5" stroke-linecap="round"/><path d="M63.28246,35.71623c0,1.50723 -0.96267,2.72908 -2.15018,2.72908c-1.18752,0 -2.15019,-1.22186 -2.15019,-2.72908c0,-1.50723 0.96267,-2.72908 2.15019,-2.72908c1.18752,0 2.15018,1.22185 2.15018,2.72908z" fill="#000000" stroke="none" stroke-width="0" stroke-linecap="butt"/><path d="M75.68738,35.88163c0,1.50723 -0.96267,2.72908 -2.15018,2.72908c-1.18752,0 -2.15019,-1.22186 -2.15019,-2.72908c0,-1.50723 0.96267,-2.72908 2.15019,-2.72908c1.18752,0 2.15018,1.22185 2.15018,2.72908z" fill="#000000" stroke="none" stroke-width="0" stroke-linecap="butt"/><path d="M73.09789,44.67359c0.88388,0.88388 0,1.76776 0,1.76776l-0.2544,0.24714c-1.59459,1.89936 -3.77074,3.71907 -5.74975,1.52451c-0.78701,0.73734 -1.97427,0.98472 -3.48284,0.23677c-1.43442,-0.71119 -1.96025,-2.07485 -2.63182,-3.34746l-0.11937,-0.30208c0,0 -0.41595,-1.17877 0.76282,-1.59472c1.17876,-0.41594 1.59471,0.76282 1.59471,0.76282l-0.01858,-0.01645c0.46481,0.9176 0.68527,1.60621 1.53494,2.26416c0.87528,0.67777 1.3457,-0.57813 0.98832,-1.35519c-0.87174,-0.39049 -1.47905,-1.26568 -1.47905,-2.28271c0,-1.38071 1.11929,-2.5 2.5,-2.5c1.38071,0 2.5,1.11929 2.5,2.5c0,0.79345 -0.36964,1.50057 -0.94612,1.95855c0.72319,2.12158 0.68805,2.89782 2.62619,0.55133l0.40719,-0.41445c0,0 0.88388,-0.88388 1.76776,0z" fill="#000000" stroke="none" stroke-width="0.5" stroke-linecap="butt"/><path d="M500.25453,8.77532c9.35073,-0.25435 4.12966,20.70289 9.41855,21.29413c6.49799,0.72641 0.31752,-22.71275 12.69459,-20.47513c11.04368,3.46593 -3.15677,22.66202 -0.94768,29.96904c1.52537,5.04548 5.01635,4.43646 5.04271,9.34322c0.02636,4.90676 -2.37694,9.48913 -4.93205,11.25805c-2.75357,1.90632 -11.03855,1.84604 -11.03855,1.84604c0,0 -8.41675,0.10446 -11.24558,-1.51201c-2.90231,-1.65848 -5.95353,-8.31606 -5.95353,-8.31606c0,0 -0.29546,-4.55897 0.51229,-6.80915c1.04265,-2.90452 5.22074,-9.16146 5.22074,-9.16146c0,0 -7.994,-26.99036 1.22851,-27.43668z" fill="#aeaeae" stroke="#000000" stroke-width="0.5" stroke-linecap="round"/><path d="M515.27943,44.20331c5.42395,1.53088 5.63905,7.71171 2.37278,11.35189c-1.39633,1.55618 -2.69114,2.65332 -4.59285,3.516c-2.19218,0.33483 -3.84972,0.45138 -5.95494,-0.39201c-3.07761,-1.23294 -6.55189,-3.40095 -6.57921,-7.09696c-0.03688,-4.99033 6.92566,-10.65333 11.29755,-7.54602c0.14022,0.05352 0.26834,0.13155 0.3791,0.22886c0.82485,-0.31802 1.76307,-0.43278 3.07758,-0.06177zM511.11269,50.62254c-0.03129,-0.02498 -0.06203,-0.05076 -0.09222,-0.07727c0.00974,0.04919 0.02026,0.09746 0.03161,0.14428c0.02036,-0.02215 0.04056,-0.04449 0.06061,-0.06701zM509.02638,45.8981c-0.04011,0.00432 -0.08417,0.02161 -0.13122,0.04919c0.0442,-0.01606 0.08794,-0.03247 0.13122,-0.04919z" fill="#ffffff" stroke="#ffffff" stroke-width="0.5" stroke-linecap="butt"/><path d="M499.46377,15.90629l2.27344,14.33259" fill="none" stroke="#ffbfbf" stroke-width="5" stroke-linecap="round"/><path d="M518.44208,30.64839l4.09503,-15.1516" fill="none" stroke="#ffbfbf" stroke-width="5" stroke-linecap="round"/><path d="M506.01077,40.95142c0,1.50723 -0.96267,2.72908 -2.15018,2.72908c-1.18752,0 -2.15019,-1.22186 -2.15019,-2.72908c0,-1.50723 0.96267,-2.72908 2.15019,-2.72908c1.18752,0 2.15018,1.22185 2.15018,2.72908z" fill="#000000" stroke="none" stroke-width="0" stroke-linecap="butt"/><path d="M518.41569,41.11682c0,1.50723 -0.96267,2.72908 -2.15018,2.72908c-1.18752,0 -2.15019,-1.22186 -2.15019,-2.72908c0,-1.50723 0.96267,-2.72908 2.15019,-2.72908c1.18752,0 2.15018,1.22185 2.15018,2.72908z" fill="#000000" stroke="none" stroke-width="0" stroke-linecap="butt"/><path d="M515.8262,49.90877c0.88389,0.88389 0,1.76776 0,1.76776l-0.2544,0.24714c-1.59459,1.89936 -3.77074,3.71907 -5.74975,1.52451c-0.78701,0.73733 -1.97427,0.98472 -3.48284,0.23677c-1.43442,-0.71119 -1.96025,-2.07484 -2.63182,-3.34746l-0.11937,-0.30208c0,0 -0.41595,-1.17877 0.76282,-1.59471c1.17876,-0.41594 1.59471,0.76282 1.59471,0.76282l-0.01858,-0.01645c0.46481,0.9176 0.68527,1.60621 1.53494,2.26416c0.87528,0.67777 1.3457,-0.57813 0.98832,-1.35519c-0.87174,-0.39049 -1.47905,-1.26568 -1.47905,-2.28271c0,-1.38071 1.11929,-2.5 2.5,-2.5c1.38071,0 2.5,1.11929 2.5,2.5c0,0.79345 -0.36964,1.50057 -0.94612,1.95855c0.72319,2.12158 0.68805,2.89782 2.62619,0.55133l0.40719,-0.41445c0,0 0.88388,-0.88388 1.76776,0z" fill="#000000" stroke="none" stroke-width="0.5" stroke-linecap="butt"/><text transform="translate(101.77152,39.84076) scale(1.23673,1.23673)" font-size="40" xml:space="preserve" fill="#ffffff" fill-rule="nonzero" stroke="none" stroke-width="1" stroke-linecap="butt" stroke-linejoin="miter" stroke-miterlimit="10" stroke-dasharray="" stroke-dashoffset="0" font-family="Marker" font-weight="normal" text-anchor="start" style="mix-blend-mode: normal"><tspan x="0" dy="0">My Social Media</tspan></text><text transform="translate(83.60436,61.00002) scale(0.5,0.5)" font-size="40" xml:space="preserve" fill="#ffffff" fill-rule="nonzero" stroke="none" stroke-width="1" stroke-linecap="butt" stroke-linejoin="miter" stroke-miterlimit="10" stroke-dasharray="" stroke-dashoffset="0" font-family="Marker" font-weight="normal" text-anchor="start" style="mix-blend-mode: normal"><tspan x="0" dy="0">Click one of the buttons to get redirected</tspan></text></g></g></svg>