<svg version="1.1" xmlns="http://www.w3.org/2000/svg" xmlns:xlink="http://www.w3.org/1999/xlink" width="96.67697" height="137.83067" viewBox="0,0,96.67697,137.83067"><g transform="translate(-99.52804,-113.02819)"><g data-paper-data="{&quot;isPaintingLayer&quot;:true}" fill-rule="nonzero" stroke-linecap="butt" stroke-linejoin="miter" stroke-miterlimit="10" stroke-dasharray="" stroke-dashoffset="0" style="mix-blend-mode: normal"><path d="M129.19476,240.85887c-10.29461,0 -18.92926,-8.06588 -19.65672,-18.35667c-0.00709,-0.13415 -0.01254,-0.27266 -0.0229,-0.40899c-0.16796,-3.30411 -0.38882,-9.73674 0.01145,-16.98681c0.26939,-4.72904 0.38882,-12.68422 0.39263,-12.96942c0.00055,-0.02127 0.00055,-0.03708 0.00055,-0.05835c0.07035,-4.87682 1.94407,-9.34356 4.97716,-12.76328c-1.50182,-5.23782 -1.98934,-11.48287 -1.05302,-18.83764l0.14233,-1.15282c0.53224,-4.35604 1.32514,-10.81157 4.60525,-17.02335c4.95916,-9.37956 14.04807,-14.76298 24.93381,-14.76298c0.62603,0 1.27605,0.01744 1.93807,0.05616c0.97504,0.05398 2.04169,0.17014 3.17978,0.37136c3.4797,-3.06963 8.05006,-4.9379 13.04085,-4.9379c0.06381,0 0.13578,0 0.20068,0c10.7963,0.13415 19.54219,9.01364 19.48766,19.80177c0,0.07253 -0.00054,0.14778 -0.00163,0.21977c-0.00327,0.2394 -0.98812,27.81202 -1.28533,29.77245c-0.02182,0.13633 -0.04417,0.27048 -0.06708,0.40463c-0.26012,1.46637 -0.68383,2.86894 -1.23952,4.19572c4.76558,5.6021 7.3406,12.56315 7.42621,20.42671c0.10306,9.89052 -4.42202,19.49529 -12.42191,26.34673c-6.86507,5.88895 -15.57824,9.12543 -24.52318,9.12543c-0.00163,0 0,0 -0.00163,0c-1.45002,0 -2.89839,-0.07962 -4.33968,-0.25139c-0.29393,0.38555 -0.6064,0.76672 -0.92978,1.13209c-3.48516,3.94214 -8.30309,6.29467 -13.56109,6.6175c-0.3501,0.02454 -0.79563,0.03927 -1.23298,0.03927z" fill="none" stroke="#28a5da" stroke-width="20"/><path d="M170.81981,198.01011c0.05508,5.33707 -2.51503,10.62726 -7.04066,14.49905c-5.06932,4.34404 -11.677,6.20523 -18.12653,5.12712c-5.00061,-0.84416 -9.14507,-2.81714 -12.30522,-4.85119c-0.03108,4.68214 0.18813,8.02879 0.18813,8.0926c0.14614,2.37706 -1.6496,4.43838 -4.04466,4.58725c-2.38524,0.15869 -4.43238,-1.65396 -4.59816,-4.04084c-0.01199,-0.29611 -0.45262,-7.26261 0,-15.47354c0.28357,-5.10368 0.41335,-13.56491 0.41335,-13.64671c0.03109,-2.39942 2.00897,-4.30696 4.39585,-4.26334c2.3896,0.04581 4.29333,2.00243 4.2666,4.37949c-0.00437,0.09161 -0.01581,0.76781 -0.03817,1.77884c0.18268,2.26746 0.74328,5.85567 2.39233,8.1373c1.95117,2.70534 5.7897,5.0377 7.33841,5.88022c1.07101,0.38227 2.21455,0.68601 3.4159,0.8796c3.86416,0.65057 8.01461,-0.52514 11.08315,-3.15687c2.57556,-2.20801 4.03049,-5.06769 4.00049,-7.83902c-0.07362,-7.17427 -7.86029,-9.85507 -19.52093,-11.69227c-10.71832,-1.67414 -15.27505,-10.31534 -13.53438,-23.98549l0.15215,-1.2177c0.85016,-6.93978 2.27127,-18.96525 15.36502,-18.24651c4.86482,0.27429 9.23995,3.59368 12.62968,7.2997c0.06707,-3.76982 0.08779,-7.48074 0.08779,-7.53091c0.01036,-2.39288 1.95553,-4.31733 4.35658,-4.31296c2.38197,0.02672 4.3026,1.96426 4.28897,4.34459c-0.00654,0.44825 -1.07538,27.48646 -1.11137,27.75476c-0.42371,2.3498 -2.67753,3.90942 -5.02024,3.49006c-1.81375,-0.32719 -3.15633,-1.73686 -3.48353,-3.4459l-0.00272,0.00164c0,0 -0.27429,-2.44196 -0.28848,-2.5074c-0.15323,-2.04496 -0.56659,-3.94214 -1.77993,-6.85199c-1.65506,-3.99449 -4.66142,-6.004 -5.97456,-7.55163c-1.45656,-1.18935 -2.90439,-1.97843 -4.17881,-2.05859c-4.26116,-0.21976 -5.20675,1.73467 -6.3083,10.67033l-0.1576,1.24061c-1.30496,10.27389 1.32241,13.57854 6.28594,14.35399c8.67445,1.36495 26.67938,4.17718 26.85388,20.15569z" fill="none" stroke="#28a5da" stroke-width="20"/><path d="M170.81981,198.01011c0.05508,5.33707 -2.51503,10.62726 -7.04066,14.49905c-5.06932,4.34404 -11.677,6.20523 -18.12653,5.12712c-5.00061,-0.84416 -9.14507,-2.81714 -12.30522,-4.85119c-0.03108,4.68214 0.18813,8.02879 0.18813,8.0926c0.14614,2.37706 -1.6496,4.43838 -4.04466,4.58725c-2.38524,0.15869 -4.43238,-1.65396 -4.59816,-4.04084c-0.01199,-0.29611 -0.45262,-7.26261 0,-15.47354c0.28357,-5.10368 0.41335,-13.56491 0.41335,-13.64671c0.03109,-2.39942 2.00897,-4.30696 4.39585,-4.26334c2.3896,0.04581 4.29333,2.00243 4.2666,4.37949c-0.00437,0.09161 -0.01581,0.76781 -0.03817,1.77884c0.18268,2.26746 0.74328,5.85567 2.39233,8.1373c1.95117,2.70534 5.7897,5.0377 7.33841,5.88022c1.07101,0.38227 2.21455,0.68601 3.4159,0.8796c3.86416,0.65057 8.01461,-0.52514 11.08315,-3.15687c2.57556,-2.20801 4.03049,-5.06769 4.00049,-7.83902c-0.07362,-7.17427 -7.86029,-9.85507 -19.52093,-11.69227c-10.71832,-1.67414 -15.27505,-10.31534 -13.53438,-23.98549l0.15215,-1.2177c0.85016,-6.93978 2.27127,-18.96525 15.36502,-18.24651c4.86482,0.27429 9.23995,3.59368 12.62968,7.2997c0.06707,-3.76982 0.08779,-7.48074 0.08779,-7.53091c0.01036,-2.39288 1.95553,-4.31733 4.35658,-4.31296c2.38197,0.02672 4.3026,1.96426 4.28897,4.34459c-0.00654,0.44825 -1.07538,27.48646 -1.11137,27.75476c-0.42371,2.3498 -2.67753,3.90942 -5.02024,3.49006c-1.81375,-0.32719 -3.15633,-1.73686 -3.48353,-3.4459l-0.00272,0.00164c0,0 -0.27429,-2.44196 -0.28848,-2.5074c-0.15323,-2.04496 -0.56659,-3.94214 -1.77993,-6.85199c-1.65506,-3.99449 -4.66142,-6.004 -5.97456,-7.55163c-1.45656,-1.18935 -2.90439,-1.97843 -4.17881,-2.05859c-4.26116,-0.21976 -5.20675,1.73467 -6.3083,10.67033l-0.1576,1.24061c-1.30496,10.27389 1.32241,13.57854 6.28594,14.35399c8.67445,1.36495 26.67938,4.17718 26.85388,20.15569z" fill="#f9a737" stroke="#ffffff" stroke-width="26.5"/><path d="M170.81981,198.01011c0.05508,5.33707 -2.51503,10.62726 -7.04066,14.49905c-5.06932,4.34404 -11.677,6.20523 -18.12653,5.12712c-5.00061,-0.84416 -9.14507,-2.81714 -12.30522,-4.85119c-0.03108,4.68214 0.18813,8.02879 0.18813,8.0926c0.14614,2.37706 -1.6496,4.43838 -4.04466,4.58725c-2.38524,0.15869 -4.43238,-1.65396 -4.59816,-4.04084c-0.01199,-0.29611 -0.45262,-7.26261 0,-15.47354c0.28357,-5.10368 0.41335,-13.56491 0.41335,-13.64671c0.03109,-2.39942 2.00897,-4.30696 4.39585,-4.26334c2.3896,0.04581 4.29333,2.00243 4.2666,4.37949c-0.00437,0.09161 -0.01581,0.76781 -0.03817,1.77884c0.18268,2.26746 0.74328,5.85567 2.39233,8.1373c1.95117,2.70534 5.7897,5.0377 7.33841,5.88022c1.07101,0.38227 2.21455,0.68601 3.4159,0.8796c3.86416,0.65057 8.01461,-0.52514 11.08315,-3.15687c2.57556,-2.20801 4.03049,-5.06769 4.00049,-7.83902c-0.07362,-7.17427 -7.86029,-9.85507 -19.52093,-11.69227c-10.71832,-1.67414 -15.27505,-10.31534 -13.53438,-23.98549l0.15215,-1.2177c0.85016,-6.93978 2.27127,-18.96525 15.36502,-18.24651c4.86482,0.27429 9.23995,3.59368 12.62968,7.2997c0.06707,-3.76982 0.08779,-7.48074 0.08779,-7.53091c0.01036,-2.39288 1.95553,-4.31733 4.35658,-4.31296c2.38197,0.02672 4.3026,1.96426 4.28897,4.34459c-0.00654,0.44825 -1.07538,27.48646 -1.11137,27.75476c-0.42371,2.3498 -2.67753,3.90942 -5.02024,3.49006c-1.81375,-0.32719 -3.15633,-1.73686 -3.48353,-3.4459l-0.00272,0.00164c0,0 -0.27429,-2.44196 -0.28848,-2.5074c-0.15323,-2.04496 -0.56659,-3.94214 -1.77993,-6.85199c-1.65506,-3.99449 -4.66142,-6.004 -5.97456,-7.55163c-1.45656,-1.18935 -2.90439,-1.97843 -4.17881,-2.05859c-4.26116,-0.21976 -5.20675,1.73467 -6.3083,10.67033l-0.1576,1.24061c-1.30496,10.27389 1.32241,13.57854 6.28594,14.35399c8.67445,1.36495 26.67938,4.17718 26.85388,20.15569z" fill="#f9a737" stroke="#000000" stroke-width="0"/></g></g></svg>